<svg width="24" height="25" viewBox="0 0 24 25" fill="none" xmlns="http://www.w3.org/2000/svg">
<g clip-path="url(#clip0_21_13)">
<path d="M6.93749 5.07507C7.64099 5.07507 8.27699 5.13357 8.85974 5.26257C9.43424 5.39157 9.92999 5.59107 10.344 5.87232C10.7542 6.15357 11.0745 6.52107 11.3047 6.99357C11.5275 7.46232 11.6445 8.04432 11.6445 8.72382C11.6445 9.46182 11.4727 10.0836 11.1367 10.5831C10.797 11.0833 10.3005 11.4816 9.63299 11.8018C10.539 12.0636 11.211 12.5203 11.6565 13.1728C12.1057 13.8328 12.3202 14.6218 12.3202 15.5323C12.3202 16.2823 12.1912 16.9228 11.91 17.4621C11.6325 18.0126 11.2417 18.4618 10.7497 18.8136C10.269 19.1616 9.69899 19.4113 9.08174 19.5793C8.47199 19.7436 7.82774 19.8336 7.17149 19.8336H-0.000762939V5.08332H6.93674L6.93749 5.07507ZM16.9417 17.2356C17.379 17.6653 18.012 17.8798 18.8362 17.8798C19.4257 17.8798 19.9342 17.7313 20.3632 17.4306C20.7892 17.1418 21.0427 16.8208 21.1447 16.4931H23.7307C23.3287 17.7703 22.6837 18.6921 21.8325 19.2433C20.9812 19.8021 19.95 20.0713 18.7545 20.0713C17.9145 20.0713 17.1682 19.9423 16.4812 19.6731C15.8092 19.4038 15.2392 19.0206 14.7622 18.5323C14.2972 18.0441 13.938 17.4538 13.6837 16.7631C13.4295 16.0723 13.3087 15.3141 13.3087 14.4936C13.3087 13.6888 13.4452 12.9546 13.7152 12.2631C13.9845 11.5641 14.3557 10.9821 14.8327 10.4743C15.3285 9.96282 15.8955 9.57957 16.5712 9.27882C17.2432 8.97807 17.97 8.84532 18.7897 8.84532C19.7002 8.84532 20.481 9.00957 21.1687 9.36882C21.8407 9.70857 22.3912 10.1893 22.8292 10.7676C23.271 11.3533 23.5792 12.0291 23.7705 12.7911C23.9617 13.5411 24.0202 14.3301 23.9812 15.1701H16.29C16.29 16.0101 16.5712 16.8028 17.001 17.2326L16.9192 17.2641L16.9417 17.2356ZM6.69899 17.2858C7.01549 17.2858 7.31999 17.2543 7.60499 17.1921C7.89374 17.1336 8.15174 17.0278 8.36699 16.8913C8.57774 16.7586 8.75774 16.5628 8.89049 16.3093C9.01949 16.0708 9.07799 15.7393 9.07799 15.3486C9.07799 14.5986 8.85899 14.0593 8.43749 13.7316C8.00774 13.4113 7.44899 13.2508 6.74999 13.2508H3.23849V17.3016H6.69974V17.2701L6.69899 17.2858ZM20.3085 11.6376C19.953 11.2506 19.3672 11.0436 18.648 11.0436C18.183 11.0436 17.7967 11.1178 17.484 11.2821C17.1832 11.4306 16.9335 11.6338 16.7415 11.8716C16.554 12.1101 16.425 12.3523 16.3507 12.6216C16.2765 12.8833 16.23 13.1218 16.218 13.3326H20.9797C20.9092 12.5826 20.6475 12.0321 20.3002 11.6413V11.6533L20.3085 11.6376ZM6.51974 11.0203C7.09424 11.0203 7.57049 10.8876 7.94549 10.6101C8.32049 10.3408 8.50049 9.88707 8.50049 9.27057C8.50049 8.92707 8.42999 8.64582 8.32049 8.42682C8.18774 8.20407 8.01974 8.03607 7.82024 7.91532C7.60949 7.79007 7.36724 7.70457 7.09724 7.65732C6.82799 7.60257 6.53849 7.58307 6.25724 7.58307H3.23024V11.0203H6.51974ZM15.6172 6.06357H21.5857V7.51632H15.6172V6.05157V6.06357Z" fill="black"/>
</g>
<defs>
<clipPath id="clip0_21_13">
<rect width="24" height="24" fill="white" transform="translate(0 0.571289)"/>
</clipPath>
</defs>
</svg>
