<svg width="25" height="25" viewBox="0 0 25 25" fill="none" xmlns="http://www.w3.org/2000/svg">
<path fill-rule="evenodd" clip-rule="evenodd" d="M10.9355 4.88974C11.4099 4.79984 11.8995 4.75281 12.4 4.75281C14.2629 4.75281 15.9736 5.40435 17.3167 6.49198C16.2403 7.57911 15.0094 8.40401 13.5657 9.02085C12.8258 7.68296 11.9688 6.35814 10.9355 4.88974ZM8.95308 5.55169C6.93497 6.54455 5.40733 8.38208 4.83141 10.603C7.49257 10.4948 9.73285 10.2187 11.6466 9.6873C10.9091 8.38848 10.0372 7.06912 8.95308 5.55169ZM4.58169 12.6139C4.59159 14.4649 5.24466 16.1636 6.3288 17.4979C8.36633 14.8213 10.4761 13.191 12.7784 12.3701L12.7798 12.3696C12.8406 12.348 12.902 12.3269 12.9638 12.3064C12.9029 12.1676 12.8411 12.03 12.7785 11.8935C12.7173 11.7601 12.6552 11.6274 12.5922 11.4955C10.2846 12.1914 7.63363 12.5065 4.58169 12.6139ZM7.78776 18.885C9.08071 19.8311 10.6751 20.3896 12.4 20.3896C13.4482 20.3896 14.4482 20.1834 15.3617 19.8092C14.8077 17.5635 14.2844 15.7566 13.7074 14.1678C13.6198 14.1954 13.5337 14.2242 13.4493 14.2542C11.5623 14.9273 9.70362 16.3172 7.78776 18.885ZM17.1639 18.7711C18.6331 17.6405 19.6891 15.9994 20.0664 14.1132C18.4582 13.7529 16.9799 13.6638 15.6935 13.7816C16.2111 15.2453 16.6823 16.865 17.1639 18.7711ZM20.2043 12.097C20.1115 10.5457 19.5663 9.11619 18.6988 7.93871C17.4583 9.18215 16.0596 10.1138 14.4785 10.8056C14.5181 10.89 14.5575 10.9748 14.5965 11.0598C14.7164 11.3214 14.833 11.5857 14.9468 11.8539C16.5251 11.6386 18.3089 11.7044 20.2043 12.097ZM12.4 2.75281C6.97743 2.75281 2.58157 7.14866 2.58157 12.5712C2.58157 17.9938 6.97743 22.3896 12.4 22.3896C17.8225 22.3896 22.2184 17.9938 22.2184 12.5712C22.2184 7.14866 17.8225 2.75281 12.4 2.75281Z" fill="black"/>
</svg>
