<svg width="24" height="25" viewBox="0 0 24 25" fill="none" xmlns="http://www.w3.org/2000/svg">
<path fill-rule="evenodd" clip-rule="evenodd" d="M3.14241 6.94246C3.14241 6.40591 3.57738 5.97095 4.11393 5.97095H19.8861C20.4226 5.97095 20.8576 6.40591 20.8576 6.94246V7.37886L12.4844 12.6996L12.4822 12.701C12.3375 12.7911 12.1705 12.8388 12 12.8388C11.8295 12.8388 11.6625 12.7911 11.5178 12.701L3.14241 7.37885V6.94246ZM1.14241 7.91135C1.14225 7.92198 1.14225 7.9326 1.14241 7.94321V18.7716C1.14241 20.4127 2.47281 21.7431 4.11393 21.7431H19.8861C21.5272 21.7431 22.8576 20.4127 22.8576 18.7716V7.94317C22.8578 7.93258 22.8578 7.92199 22.8576 7.91139V6.94246C22.8576 5.30134 21.5272 3.97095 19.8861 3.97095H4.11393C2.47281 3.97095 1.14241 5.30134 1.14241 6.94246V7.91135ZM20.8576 9.74849V18.7716C20.8576 19.3081 20.4226 19.7431 19.8861 19.7431H4.11393C3.57738 19.7431 3.14241 19.3081 3.14241 18.7716V9.74849L10.4483 14.3911L10.4483 14.3911L10.4537 14.3945C10.9172 14.6848 11.4531 14.8388 12 14.8388C12.5469 14.8388 13.0828 14.6848 13.5463 14.3945L13.5463 14.3945L13.5517 14.3911L20.8576 9.74849Z" fill="black"/>
</svg>
