<svg width="25" height="25" viewBox="0 0 25 25" fill="none" xmlns="http://www.w3.org/2000/svg">
<path d="M16.6648 12.9873C16.9883 12.9873 17.2714 13.1259 17.514 13.4032C17.7567 13.6805 17.9242 13.9809 18.0166 14.3044C18.1784 14.7897 18.2304 15.2865 18.1726 15.7949C18.1148 16.3033 17.9011 16.7654 17.5314 17.1814C17.2772 17.4587 16.9883 17.5973 16.6648 17.5973C16.3182 17.5973 16.0236 17.4587 15.7809 17.1814C15.5383 16.9041 15.3592 16.6037 15.2437 16.2801C15.1281 15.7949 15.0992 15.2981 15.157 14.7897C15.2148 14.2813 15.417 13.8191 15.7636 13.4032C16.0409 13.1259 16.3413 12.9873 16.6648 12.9873ZM8.96983 12.9873C9.29334 12.9873 9.57642 13.1259 9.81905 13.4032C10.0617 13.6805 10.2408 13.9809 10.3563 14.3044C10.495 14.7897 10.5354 15.2865 10.4776 15.7949C10.4199 16.3033 10.2061 16.7654 9.83638 17.1814C9.58219 17.4587 9.29334 17.5973 8.96983 17.5973C8.62321 17.5973 8.32858 17.4587 8.08595 17.1814C7.84332 16.9041 7.66423 16.6037 7.54869 16.2801C7.43315 15.7949 7.40426 15.2981 7.46203 14.7897C7.5198 14.2813 7.722 13.8191 8.06862 13.4032C8.34592 13.1259 8.64632 12.9873 8.96983 12.9873ZM21.1709 8.75848C22.2569 10.0063 22.8 11.6008 22.8 13.5418C22.8 15.2056 22.5574 16.5343 22.0721 17.528C21.7486 18.1288 21.3211 18.6545 20.7896 19.1051C20.2581 19.5557 19.692 19.8966 19.0911 20.1276C18.7907 20.2432 18.473 20.3529 18.1379 20.4569C17.8029 20.5609 17.4389 20.6476 17.0461 20.7169C16.6533 20.7862 16.2893 20.8382 15.9542 20.8729C15.6192 20.9075 15.3014 20.9364 15.001 20.9595C14.7006 20.9826 14.3829 21 14.0478 21.0115C13.7128 21.0231 13.3604 21.0288 12.9906 21.0288H12.0894L11.2922 20.9942L10.4603 20.9422L9.52442 20.8555C8.90051 20.7862 8.28815 20.6591 7.68734 20.4743C6.85545 20.2432 6.05244 19.8966 5.27832 19.4344C4.50421 18.9722 3.93228 18.3368 3.56255 17.528C3.05418 16.5343 2.79999 15.2056 2.79999 13.5418C2.79999 11.647 3.34303 10.0525 4.4291 8.75848C4.22113 8.11146 4.11715 7.44133 4.11715 6.74808C4.11715 5.82376 4.32512 4.94566 4.74106 4.11377C5.61917 4.11377 6.37018 4.27553 6.9941 4.59904C7.34072 4.76079 7.69889 4.96299 8.06862 5.20562C8.43835 5.44826 8.84274 5.73133 9.28179 6.05484C10.4603 5.77755 11.6966 5.6389 12.9906 5.6389C14.146 5.6389 15.2668 5.76599 16.3528 6.02018C17.1616 5.37316 17.9126 4.88789 18.6059 4.56438C19.2298 4.26397 19.9924 4.11377 20.8936 4.11377C21.2864 4.96877 21.4828 5.84687 21.4828 6.74808C21.4828 7.44133 21.3788 8.11146 21.1709 8.75848ZM18.7445 18.3945C19.1374 18.071 19.4609 17.6493 19.7151 17.1294C19.9693 16.6094 20.0963 16.0028 20.0963 15.3096C20.0963 14.3391 19.8191 13.5187 19.2645 12.8486C18.7561 12.1785 18.0166 11.8434 17.0461 11.8434C16.8612 11.8434 16.5782 11.8607 16.1969 11.8954C15.8156 11.9301 15.313 11.9936 14.6891 12.086C14.4118 12.1323 14.1114 12.1669 13.7879 12.19C13.4643 12.2131 13.1408 12.2247 12.8173 12.2247C12.4707 12.2247 12.1356 12.2131 11.8121 12.19C11.4886 12.1669 11.1882 12.1323 10.9109 12.086C10.3101 11.9936 9.81905 11.9301 9.43777 11.8954C9.05649 11.8607 8.77341 11.8434 8.58855 11.8434C7.61801 11.8434 6.867 12.1785 6.33552 12.8486C5.78092 13.5187 5.50363 14.3391 5.50363 15.3096C5.50363 16.0028 5.63072 16.6094 5.88491 17.1294C6.1391 17.6493 6.46261 18.071 6.85545 18.3945C7.27139 18.6949 7.75666 18.926 8.31125 19.0878C8.91206 19.2726 9.47821 19.394 10.0097 19.4517C10.5412 19.5095 11.1304 19.5384 11.7775 19.5384H13.8225C14.4927 19.5384 15.0877 19.5095 15.6076 19.4517C16.1275 19.394 16.6879 19.2726 17.2887 19.0878C17.8433 18.926 18.3286 18.6949 18.7445 18.3945Z" fill="black"/>
</svg>
