<svg width="25" height="29" viewBox="0 0 25 29" fill="none" xmlns="http://www.w3.org/2000/svg">
<path d="M7.45844 23.1558H3.89884V11.6929H7.45844V23.1558ZM5.67672 10.1292C4.53848 10.1292 3.61523 9.18643 3.61523 8.04818C3.61523 7.50144 3.83243 6.97709 4.21903 6.59049C4.60563 6.20389 5.12998 5.98669 5.67672 5.98669C6.22346 5.98669 6.74781 6.20389 7.13442 6.59049C7.52102 6.97709 7.73821 7.50144 7.73821 8.04818C7.73821 9.18643 6.81459 10.1292 5.67672 10.1292ZM20.7809 23.1558H17.229V17.5757C17.229 16.2458 17.2021 14.5404 15.3783 14.5404C13.5276 14.5404 13.2439 15.9852 13.2439 17.4799V23.1558H9.68818V11.6929H13.1021V13.2565H13.152C13.6272 12.3559 14.7881 11.4054 16.52 11.4054C20.1225 11.4054 20.7847 13.7777 20.7847 16.859V23.1558H20.7809Z" fill="black"/>
</svg>
