<svg width="24" height="25" viewBox="0 0 24 25" fill="none" xmlns="http://www.w3.org/2000/svg">
<path d="M20 10.5713C20 15.5643 14.461 20.7643 12.601 22.3703C12.4277 22.5006 12.2168 22.571 12 22.571C11.7832 22.571 11.5723 22.5006 11.399 22.3703C9.539 20.7643 4 15.5643 4 10.5713C4 8.44956 4.84285 6.41473 6.34315 4.91443C7.84344 3.41414 9.87827 2.57129 12 2.57129C14.1217 2.57129 16.1566 3.41414 17.6569 4.91443C19.1571 6.41473 20 8.44956 20 10.5713Z" stroke="black" stroke-width="2" stroke-linecap="round" stroke-linejoin="round"/>
<path d="M12 13.5713C13.6569 13.5713 15 12.2281 15 10.5713C15 8.91443 13.6569 7.57129 12 7.57129C10.3431 7.57129 9 8.91443 9 10.5713C9 12.2281 10.3431 13.5713 12 13.5713Z" stroke="black" stroke-width="2" stroke-linecap="round" stroke-linejoin="round"/>
</svg>
