<svg width="24" height="25" viewBox="0 0 24 25" fill="none" xmlns="http://www.w3.org/2000/svg">
<path d="M19.7222 16.6418V18.9546C19.7231 19.1693 19.6791 19.3818 19.5931 19.5785C19.5071 19.7752 19.3809 19.9518 19.2227 20.097C19.0645 20.2421 18.8777 20.3526 18.6743 20.4214C18.4709 20.4902 18.2554 20.5158 18.0416 20.4964C15.6693 20.2387 13.3905 19.428 11.3884 18.1297C9.52572 16.946 7.94647 15.3668 6.76283 13.5041C5.45994 11.4929 4.64913 9.20305 4.39607 6.82011C4.37681 6.60692 4.40214 6.39206 4.47047 6.1892C4.53879 5.98634 4.64861 5.79993 4.79292 5.64183C4.93724 5.48374 5.11289 5.35743 5.3087 5.27094C5.5045 5.18445 5.71617 5.13968 5.93023 5.13948H8.24302C8.61716 5.1358 8.97987 5.26829 9.26355 5.51225C9.54723 5.75621 9.73252 6.09501 9.78488 6.46548C9.8825 7.20563 10.0635 7.93235 10.3245 8.6318C10.4283 8.90773 10.4507 9.20762 10.3892 9.49592C10.3277 9.78422 10.1849 10.0489 9.97762 10.2585L8.99853 11.2375C10.096 13.1676 11.6941 14.7657 13.6241 15.8631L14.6032 14.8841C14.8128 14.6768 15.0774 14.5339 15.3657 14.4724C15.6541 14.411 15.9539 14.4334 16.2299 14.5371C16.9293 14.7981 17.656 14.9792 18.3962 15.0768C18.7707 15.1296 19.1127 15.3182 19.3572 15.6068C19.6017 15.8953 19.7316 16.2637 19.7222 16.6418Z" stroke="black" stroke-width="2" stroke-linecap="round" stroke-linejoin="round"/>
</svg>
