<svg width="25" height="25" viewBox="0 0 25 25" fill="none" xmlns="http://www.w3.org/2000/svg">
<g clip-path="url(#clip0_21_24)">
<path d="M20.186 0.571274C19.368 0.571274 18.678 0.761274 18.113 1.13627C17.55 1.51327 17.143 2.07227 16.9 2.81627C16.8524 2.95912 16.815 3.10515 16.788 3.25327C16.7563 3.42906 16.7303 3.60582 16.71 3.78327C16.6835 4.02483 16.6668 4.26736 16.66 4.51027C16.65 4.79227 16.647 5.13127 16.647 5.52627C16.6461 5.86533 16.6508 6.20437 16.661 6.54327C16.6678 6.78618 16.6845 7.02871 16.711 7.27027C16.7307 7.44776 16.7564 7.62452 16.788 7.80027H16.783C16.8107 7.94866 16.8484 8.095 16.896 8.23827C17.141 8.98127 17.546 9.54127 18.11 9.91827C18.675 10.2943 19.366 10.4823 20.185 10.4823C20.985 10.4823 21.721 10.2693 22.29 9.87927C22.86 9.48927 23.23 8.96327 23.465 8.22927C23.541 7.99427 23.6 7.67127 23.642 7.29927C23.6786 6.89804 23.693 6.49509 23.685 6.09227V5.27227C23.685 5.17727 23.638 5.13027 23.545 5.13027H20.481C20.387 5.13027 20.341 5.17727 20.341 5.27127V6.22727C20.341 6.32127 20.387 6.36727 20.481 6.36727H22.147C22.203 6.36727 22.231 6.39727 22.231 6.45327C22.231 6.81327 22.231 7.07327 22.195 7.31827C22.157 7.56227 22.095 7.76527 22.048 7.92427C21.94 8.30927 21.7 8.58827 21.41 8.80027C21.12 9.01227 20.672 9.15027 20.183 9.15027C19.638 9.15027 19.282 9.00027 18.973 8.79727C18.667 8.59427 18.456 8.34327 18.303 7.88227C18.2226 7.63534 18.1732 7.37938 18.156 7.12027C18.1405 6.90184 18.1292 6.68314 18.122 6.46427C18.112 6.20427 18.108 5.89227 18.108 5.52527C18.1071 5.21255 18.1117 4.89983 18.122 4.58727C18.1291 4.36839 18.1408 4.14967 18.157 3.93127C18.1753 3.67287 18.225 3.41766 18.305 3.17127C18.4302 2.76002 18.692 2.40375 19.047 2.16127C19.391 1.91727 19.64 1.80927 20.184 1.80927C20.692 1.80927 20.999 1.90527 21.328 2.11227C21.658 2.31927 21.856 2.60427 22.092 3.03727C22.139 3.13127 22.203 3.15527 22.29 3.10727L23.334 2.67727C23.409 2.62927 23.424 2.56227 23.376 2.47827C23.2519 2.21264 23.0954 1.96341 22.91 1.73627C22.7158 1.50056 22.4869 1.29587 22.231 1.12927C21.9522 0.948075 21.6478 0.80986 21.328 0.719274C20.9562 0.616039 20.5717 0.566206 20.186 0.571274ZM8.81697 6.40727C7.12697 6.40727 5.78097 6.49327 4.51997 6.49327C3.37397 6.49327 2.22897 6.49327 1.51297 6.46427V7.29527L2.60097 7.49527C3.34497 7.63927 3.77497 7.98327 3.77497 9.75927V21.0473C3.77497 22.8243 3.34497 23.1673 2.60097 23.3103L1.51297 23.5103V24.3423C2.28597 24.3133 3.63297 24.2563 4.97797 24.2563C6.26797 24.2563 7.92897 24.3133 8.64497 24.3423V23.5113L7.15497 23.3113C6.38197 23.1963 5.98097 22.8243 5.98097 21.0473V16.2633C6.66897 16.3203 7.27097 16.3203 8.18697 16.3203C9.93497 19.4433 11.597 21.7923 12.542 22.8803C13.402 23.9123 14.719 24.5713 16.381 24.5713C16.868 24.5713 17.384 24.4853 17.699 24.3413V23.5973C16.668 23.5973 15.636 22.8813 14.891 22.0793C13.631 20.7033 11.941 18.4973 10.536 16.0053C12.856 15.4603 14.576 13.2833 14.576 11.1053C14.576 7.89727 12.084 6.40727 8.81797 6.40727H8.81697ZM8.30197 7.69727C10.708 7.69727 12.141 8.95727 12.141 11.2493C12.141 13.5123 10.594 15.0313 8.04397 15.0313C7.06997 15.0313 6.63997 15.0013 5.98097 14.9453V7.75527C6.64097 7.69627 7.52797 7.69627 8.30097 7.69627L8.30197 7.69727Z" fill="black"/>
</g>
<defs>
<clipPath id="clip0_21_24">
<rect width="24" height="24" fill="white" transform="translate(0.599976 0.571289)"/>
</clipPath>
</defs>
</svg>
